<svg xmlns="http://www.w3.org/2000/svg" xmlns:xlink="http://www.w3.org/1999/xlink" viewBox="0 0 136.74 171.22"><defs><style>.cls-1{fill:none;}.cls-2{fill:#fffdf5;}.cls-3{fill:#eedaea;}.cls-4{fill:#512a4c;}.cls-5{clip-path:url(#clip-path);}.cls-6{fill:#ffec00;}.cls-7{clip-path:url(#clip-path-2);}.cls-8{fill:#672a60;opacity:0.13;}.cls-9{fill:#d9beda;}.cls-10{fill:#a8619f;}</style><clipPath id="clip-path" transform="translate(8.27 -5.27)"><rect class="cls-1" width="128.57" height="168.24"/></clipPath><clipPath id="clip-path-2" transform="translate(8.27 -5.27)"><path class="cls-2" d="M35.9,157.6c.13,4.35.39,8.7.2,13.05,0,1,0,1.93,0,2.9,0,.64-.27.86-.89.77-2.6-.35-5.19-.72-7.79-1.06-1.64-.21-3.29-.35-4.94-.54s-3.28-.44-4.92-.65c-1.23-.16-2.47-.32-3.7-.46-1.64-.19-3.29-.35-4.94-.54s-3.56-.44-5.34-.64c-.75-.09-1.51-.13-2.27-.2a6.63,6.63,0,0,1-2.39-.45c0-.1-.09-.16-.09-.23a69.54,69.54,0,0,1,0-7.64.38.38,0,0,1,.47-.25c.37.18.73.38,1.1.57a12.79,12.79,0,0,0,2.47,1,18.29,18.29,0,0,0,8,.48,13.26,13.26,0,0,0,3.39-.84.24.24,0,0,0,.13-.15c.06-.17,0-.27-.15-.3a.71.71,0,0,0-.2,0,48.84,48.84,0,0,1-8.43-.9,11.58,11.58,0,0,1-4.61-1.73c-.7-.45-1.37-.94-2.06-1.4a9.58,9.58,0,0,1-2.52-2.71,6.69,6.69,0,0,1,.72-8.06,4.64,4.64,0,0,1,5.69-.93A16.78,16.78,0,0,1,4.66,148a42,42,0,0,0,5.43,3.43,20,20,0,0,0,2.28,1,10.54,10.54,0,0,0,4.5.39,2,2,0,0,0,.74-.33.46.46,0,0,0,0-.71,3.6,3.6,0,0,0-.91-.43c-.74-.18-1.49-.3-2.24-.44a11.22,11.22,0,0,1-3.27-1.22A43.77,43.77,0,0,1,7,147l-2.38-1.66a6.21,6.21,0,0,0-3.68-1.18c-.14,0-.28,0-.41,0-1.23,0-1.31-.12-1.18-1.33a58.39,58.39,0,0,0,.21-6.21,6,6,0,0,1,.13-1s.13-.07.19-.05a.86.86,0,0,1,.34.18c.28.3.57.61.83.93A46.59,46.59,0,0,0,17,149c1.3.64,2.58,1.3,3.83,2.05a47.33,47.33,0,0,0,13.53,5.55c.47.11.92.29,1.44.45A2.83,2.83,0,0,1,35.9,157.6Z"/></clipPath></defs><g id="Layer_2" data-name="Layer 2"><g id="OBJECTS"><rect class="cls-3" x="9.35" y="35.57" width="126.32" height="126.32" rx="15.22"/><path class="cls-4" d="M116.75,168.24h-105A11.73,11.73,0,0,1,0,156.52v-105A11.72,11.72,0,0,1,11.71,39.77h105a11.73,11.73,0,0,1,11.72,11.71v105A11.74,11.74,0,0,1,116.75,168.24ZM11.71,41.92a9.57,9.57,0,0,0-9.56,9.56v105a9.57,9.57,0,0,0,9.56,9.57h105a9.58,9.58,0,0,0,9.57-9.57v-105a9.57,9.57,0,0,0-9.57-9.56Z" transform="translate(8.27 -5.27)"/><g class="cls-5"><path class="cls-6" d="M98.29,147.77c.07.12-.15.39-.36.44l-2.42.54c-.27.06-.53.13-.8.21a1,1,0,0,0-.7.92,6.19,6.19,0,0,0,.23,2.05c.17.73.33,1.48.46,2.22a5,5,0,0,1-.36,2.69,4.53,4.53,0,0,1-.77-.41c-.73-.62-1.45-1.27-2.17-1.91s-1.51-1.41-2.29-2.1a1.73,1.73,0,0,0-1.93-.29c-.88.39-1.73.86-2.58,1.32a15.1,15.1,0,0,1-2.79,1.31.28.28,0,0,1-.2,0,.22.22,0,0,1-.14-.33,10.09,10.09,0,0,1,.38-1c.49-.91,1-1.8,1.53-2.69.61-1.08,1.23-2.16,1.83-3.24a.87.87,0,0,0-.33-1.09c-.24-.15-.48-.27-.72-.41-.47-.29-.94-.58-1.39-.89a2.9,2.9,0,0,1-.61-.55c-.07-.08,0-.24-.07-.39,1.94-.59,4-.37,5.88-.53a4.27,4.27,0,0,0,1.08-1.31c.43-.62.89-1.23,1.37-1.81.1-.13.36-.14.55-.21a12.13,12.13,0,0,1,1,3.82c0,.2,0,.41.07.61a1,1,0,0,0,.76.88c.79.27,1.59.45,2.37.72,1,.34,1.94.73,2.9,1.11C98.17,147.51,98.23,147.66,98.29,147.77Z" transform="translate(8.27 -5.27)"/><path class="cls-6" d="M30.59,26.81c.09.15,0,.34-.3.46l-.95.4-5.59,2.14A.93.93,0,0,0,23.12,31c.1.48.23.94.36,1.41.27,1,.56,2,.83,3a5,5,0,0,1,.17,1.84.34.34,0,0,1-.48.2c-.41-.25-.83-.5-1.22-.77l-4.4-3.1a2.52,2.52,0,0,0-.33-.24,1.84,1.84,0,0,0-2,0,15.66,15.66,0,0,0-1.32,1c-1.19.94-2.36,1.91-3.56,2.84A4.86,4.86,0,0,1,9,38.24c-.24-.26-.13-.52-.06-.78a61.79,61.79,0,0,1,2-6.07c.18-.45.37-.89.51-1.35a1,1,0,0,0-.34-1.12c-.79-.56-1.58-1.1-2.4-1.62-1-.64-2-1.23-3-1.88a3.51,3.51,0,0,1-.72-.72s.06-.32.11-.32c1.16-.17,2.31-.35,3.48-.46.89-.08,1.79-.08,2.69-.09a11.17,11.17,0,0,0,2.44-.38.88.88,0,0,0,.61-.51c.22-.51.41-1,.61-1.54l1.58-4.26a1.48,1.48,0,0,1,.58-.83,1.53,1.53,0,0,1,.49,1.08,20.93,20.93,0,0,0,1.58,4.48,3.6,3.6,0,0,0,2.55,2.22c1.33.33,2.66.69,4,1,1.13.3,2.27.6,3.39.92a6.73,6.73,0,0,1,1.15.46C30.45,26.55,30.52,26.7,30.59,26.81Z" transform="translate(8.27 -5.27)"/><path class="cls-4" d="M27,97.6a2.69,2.69,0,0,1-1.23,2.47,2.52,2.52,0,0,1-3.22-.29,3.24,3.24,0,0,1,.27-5A2.06,2.06,0,0,1,25,94.53,3.21,3.21,0,0,1,27,97.6Z" transform="translate(8.27 -5.27)"/><path class="cls-4" d="M62,114.4a2.18,2.18,0,0,1,.84,2.19,3.22,3.22,0,0,1-4,2.64,2.59,2.59,0,0,1-1.71-3.87,3.13,3.13,0,0,1,3-1.58A2.73,2.73,0,0,1,62,114.4Z" transform="translate(8.27 -5.27)"/><path class="cls-2" d="M35.9,157.6c.13,4.35.39,8.7.2,13.05,0,1,0,1.93,0,2.9,0,.64-.27.86-.89.77-2.6-.35-5.19-.72-7.79-1.06-1.64-.21-3.29-.35-4.94-.54s-3.28-.44-4.92-.65c-1.23-.16-2.47-.32-3.7-.46-1.64-.19-3.29-.35-4.94-.54s-3.56-.44-5.34-.64c-.75-.09-1.51-.13-2.27-.2a6.63,6.63,0,0,1-2.39-.45c0-.1-.09-.16-.09-.23a69.54,69.54,0,0,1,0-7.64.38.38,0,0,1,.47-.25c.37.18.73.38,1.1.57a12.79,12.79,0,0,0,2.47,1,18.29,18.29,0,0,0,8,.48,13.26,13.26,0,0,0,3.39-.84.24.24,0,0,0,.13-.15c.06-.17,0-.27-.15-.3a.71.71,0,0,0-.2,0,48.84,48.84,0,0,1-8.43-.9,11.58,11.58,0,0,1-4.61-1.73c-.7-.45-1.37-.94-2.06-1.4a9.58,9.58,0,0,1-2.52-2.71,6.69,6.69,0,0,1,.72-8.06,4.64,4.64,0,0,1,5.69-.93A16.78,16.78,0,0,1,4.66,148a42,42,0,0,0,5.43,3.43,20,20,0,0,0,2.28,1,10.54,10.54,0,0,0,4.5.39,2,2,0,0,0,.74-.33.46.46,0,0,0,0-.71,3.6,3.6,0,0,0-.91-.43c-.74-.18-1.49-.3-2.24-.44a11.22,11.22,0,0,1-3.27-1.22A43.77,43.77,0,0,1,7,147l-2.38-1.66a6.21,6.21,0,0,0-3.68-1.18c-.14,0-.28,0-.41,0-1.23,0-1.31-.12-1.18-1.33a58.39,58.39,0,0,0,.21-6.21,6,6,0,0,1,.13-1s.13-.07.19-.05a.86.86,0,0,1,.34.18c.28.3.57.61.83.93A46.59,46.59,0,0,0,17,149c1.3.64,2.58,1.3,3.83,2.05a47.33,47.33,0,0,0,13.53,5.55c.47.11.92.29,1.44.45A2.83,2.83,0,0,1,35.9,157.6Z" transform="translate(8.27 -5.27)"/><g class="cls-7"><path class="cls-8" d="M38.76,153.38q-8.84-3.33-17.95-5.79c-2.8-.75-5.61-1.43-8.35-2.35-.66-.23-1.32-.47-2-.72l-.11-.05-.09-.06-.22-.18c-.23-.19-.47-.39-.69-.59-.46-.42-.9-.85-1.31-1.3l-.67-.78h0l-.29-.42a13.22,13.22,0,0,1-1-1.73c-.08-.15-.15-.31-.22-.46l0-.08h0c-.11-.32-.23-.63-.33-1s-.18-.65-.24-1c0-.13,0-.26-.08-.39h0s0-.06,0-.09c0-.26.09-.52.14-.78a2.8,2.8,0,0,0-1.91-3.37A3.1,3.1,0,0,0,.72,133a2.4,2.4,0,0,0-1.26-.29,2.78,2.78,0,0,0-2.74,2.74A18.37,18.37,0,0,0-.1,144.74a3,3,0,0,0,2.41,1.37,19.06,19.06,0,0,0,5.34,3.11,24.4,24.4,0,0,0,2.19,1.45,66.16,66.16,0,0,0,8.25,3.91A71,71,0,0,0,27.23,158a26.6,26.6,0,0,0,11.53.72,2.73,2.73,0,0,0,2-2.64A2.88,2.88,0,0,0,38.76,153.38Z" transform="translate(8.27 -5.27)"/><path class="cls-8" d="M13.28,163a2.81,2.81,0,0,0-3.75-1l-.48.22-.19.09.17-.07c-.13.17-.69.26-.89.32a16.37,16.37,0,0,1-1.94.53c-.25.05-.52.12-.78.16H5.16l-.53.05a19,19,0,0,1-2,0,3.77,3.77,0,0,0-.43-.64,11.77,11.77,0,0,0-7.73-3.9,2.74,2.74,0,0,0-2.74,2.74A3,3,0,0,0-8,162.64h0a2.74,2.74,0,0,0,1.13,3.42,20.5,20.5,0,0,0,19.19.63A2.76,2.76,0,0,0,13.28,163Z" transform="translate(8.27 -5.27)"/></g><path class="cls-9" d="M9.85,107.72A15.15,15.15,0,0,1,5.29,122a16.76,16.76,0,0,1-6.78,3.83,7.25,7.25,0,0,1-.81.16c-.53.1-.82,0-1-.47s-.32-.76-.47-1.14a31.82,31.82,0,0,1-2.15-11.66,33.09,33.09,0,0,1,3.38-15c.24-.49.53-1,.81-1.44A.7.7,0,0,1-1,96a2.88,2.88,0,0,1,.4.09A16.05,16.05,0,0,1,9.85,107.72Z" transform="translate(8.27 -5.27)"/><path class="cls-9" d="M75.32,137.22c-.17.36-.29.69-.45,1a33.23,33.23,0,0,1-20.74,16.27c-3.67,1-3.44,1.16-4.21-2.71a15.13,15.13,0,0,1,3.52-13.5,14.23,14.23,0,0,1,8.87-4.88,15.88,15.88,0,0,1,12.29,3.1A6.33,6.33,0,0,1,75.32,137.22Z" transform="translate(8.27 -5.27)"/><path class="cls-2" d="M65,36.28a76.06,76.06,0,0,1-.42,9.31,77.39,77.39,0,0,1-4.93,21.09,45.38,45.38,0,0,1-3.63,7.2l-.45.69a1.14,1.14,0,0,1-1.77-.06.53.53,0,0,1-.05-.39,2.49,2.49,0,0,1,.24-.56,41.42,41.42,0,0,0,3.43-9.3,76.61,76.61,0,0,0,1.81-10A108.1,108.1,0,0,0,60,42.1c0-1.6-.08-3.17-.22-4.75-.18-1.86-.3-3.72-.58-5.56a46.5,46.5,0,0,0-2.08-8.64,21.05,21.05,0,0,0-1.83-3.94A10,10,0,0,0,53,16.56a4.69,4.69,0,0,0-5.42-.22,10.14,10.14,0,0,0-2.14,1.94,17.74,17.74,0,0,0-2.33,3.66,41,41,0,0,0-2.9,8,81.27,81.27,0,0,0-2.17,12,92,92,0,0,0-.28,16.34A47.83,47.83,0,0,0,39.37,68c.28,1,.64,2,1,3,.1.32.18.65.25,1a.47.47,0,0,1-.33.45,16,16,0,0,1-2.85,0,3.11,3.11,0,0,1-.32-.63c-.55-2.28-1.13-4.55-1.62-6.85a55.14,55.14,0,0,1-1.12-9.24c-.12-3-.11-5.93,0-8.9.09-2.63.41-5.23.76-7.83a83.27,83.27,0,0,1,1.76-9.14,62.92,62.92,0,0,1,3.79-10.94,35.73,35.73,0,0,1,3.5-6.09A18.41,18.41,0,0,1,48,8.8a10.29,10.29,0,0,1,3.12-1.57,5.78,5.78,0,0,1,4.41.48,8.19,8.19,0,0,1,2.17,1.57,15.35,15.35,0,0,1,2.47,3.31,27.54,27.54,0,0,1,2.43,5.7,50.84,50.84,0,0,1,1.76,8.08A86.39,86.39,0,0,1,65,36.28Z" transform="translate(8.27 -5.27)"/><path class="cls-2" d="M120.6,46.41a14.08,14.08,0,0,1-.62,4.91,28.89,28.89,0,0,1-2.16,5.36A49.56,49.56,0,0,1,112,65.45,85.38,85.38,0,0,1,85.72,86.94a9.64,9.64,0,0,1-2.07.93,3.61,3.61,0,0,0-.94.42,28.22,28.22,0,0,1-5.12,2.2c-1.23.45-2.46.9-3.7,1.32a.64.64,0,0,1-.56-.1,9.44,9.44,0,0,1-1.57-2.41A.4.4,0,0,1,71.9,89a2.12,2.12,0,0,1,.72-.36,41.94,41.94,0,0,0,7.25-2.41,46,46,0,0,0,5.51-2.81,88.19,88.19,0,0,0,19.8-15.21A54.8,54.8,0,0,0,110.41,62a27.91,27.91,0,0,0,2.87-4.78,11.62,11.62,0,0,0,1.18-4.16,9.91,9.91,0,0,0,0-1.44,4.11,4.11,0,0,0-2.35-3.43,5.45,5.45,0,0,0-2-.63,17.54,17.54,0,0,0-5.36.23,39.11,39.11,0,0,0-7.66,2.47,72.91,72.91,0,0,0-12.45,6.93A91.7,91.7,0,0,0,71.43,68.13a47.37,47.37,0,0,0-8.36,10.74c-.25.47-.51.5-1,.15a3,3,0,0,1-.47-.4,1.84,1.84,0,0,1-.19-.37A10.49,10.49,0,0,1,62.37,76a50.5,50.5,0,0,1,6.82-10.35A85.06,85.06,0,0,1,94.4,45.11a50.33,50.33,0,0,1,10.7-4.37A27,27,0,0,1,112,39.66a12.3,12.3,0,0,1,3.48.49A6.52,6.52,0,0,1,120.6,46.41Z" transform="translate(8.27 -5.27)"/><path class="cls-2" d="M79.27,113.46a44.34,44.34,0,0,1,.29,8.06,38.62,38.62,0,0,1-3.28,13.81,7.28,7.28,0,0,1-.4.72.44.44,0,0,1-.54.14L74,135.28a16.08,16.08,0,0,0-24.3,18.24,3.11,3.11,0,0,1,.41,1.58c-.11.07-.21.19-.33.21a32.07,32.07,0,0,1-9.28.23,45.91,45.91,0,0,1-6.7-1.22,49.67,49.67,0,0,1-10.9-4.43q-3-1.62-6-3.23a48.66,48.66,0,0,1-10.63-7.48A40.8,40.8,0,0,1-2,128.36c-.19-.37-.34-.76-.5-1.14a.44.44,0,0,1,.22-.51c.53-.16,1.06-.29,1.59-.46A15.61,15.61,0,0,0,9.87,116,16.15,16.15,0,0,0,3.63,97.57,16.77,16.77,0,0,0,0,95.66a5.56,5.56,0,0,1-.73-.37.47.47,0,0,1-.13-.55,32.06,32.06,0,0,1,3.63-5A42.42,42.42,0,0,1,16,79.56a50,50,0,0,1,13.1-4.36,56.56,56.56,0,0,1,10.71-.85,55.65,55.65,0,0,1,13.29,1.76,12.76,12.76,0,0,1,2.34.83c4.94,2.38,4.84,2.33,8.42,5.86a53.88,53.88,0,0,1,12.61,19.25A49.68,49.68,0,0,1,79.27,113.46ZM64,117.67a3.36,3.36,0,0,0,.15-1.21,4.58,4.58,0,0,0-1.69-3.21,4,4,0,0,0-2.7-.89,4.66,4.66,0,0,0-3.93,2.34,3.88,3.88,0,0,0,0,4.31A4,4,0,0,0,59.32,121,4.53,4.53,0,0,0,64,117.67ZM47.67,127.5a.29.29,0,0,0,0-.18.31.31,0,0,0-.16-.12c-.67-.07-1.15.41-1.75.57a7,7,0,0,1-3.24.42A6,6,0,0,1,39,126.1a10,10,0,0,1-1.73-3,15.26,15.26,0,0,1-.89-3.39c0-.28-.06-.55-.11-.82a.71.71,0,0,0-.78-.52,5.71,5.71,0,0,0-.58.21c-.84.32-1.65.7-2.5,1a11.36,11.36,0,0,1-4.48.59A5.62,5.62,0,0,1,22.82,116c-.12-.4-.17-.81-.28-1.21a6.57,6.57,0,0,0-.31-1c0-.08-.21-.12-.33-.14s-.24.09-.26.26-.07.53-.07.54A6.62,6.62,0,0,0,26,120.85a10.79,10.79,0,0,0,5.32.26,24.89,24.89,0,0,0,3.36-1,.57.57,0,0,1,.5.24c.22.65.36,1.33.57,2a11.75,11.75,0,0,0,2.68,4.84,6.92,6.92,0,0,0,3.93,2.13,6.2,6.2,0,0,0,5.18-1.45C47.59,127.78,47.62,127.62,47.67,127.5Zm-6.73-10.78a1.49,1.49,0,0,0,.72-2.07,4.09,4.09,0,0,0-.7-1,8.14,8.14,0,0,0-4.12-2.15,2.51,2.51,0,0,0-1,0,1.6,1.6,0,0,0-1.24,2.17A7.74,7.74,0,0,0,36,115.93a2.36,2.36,0,0,0,1.52.95c.48.06.94.15,1.13.18A4.15,4.15,0,0,0,40.94,116.72ZM25.45,102a4.53,4.53,0,0,0,1.69-7.54,4.24,4.24,0,0,0-6.86,1.32A5,5,0,0,0,20,98.19a4.61,4.61,0,0,0,4.49,4A10.29,10.29,0,0,0,25.45,102Z" transform="translate(8.27 -5.27)"/><path class="cls-10" d="M40.33,115a.52.52,0,0,1-.23.67,2.89,2.89,0,0,1-1.4.26l-.59,0a1.61,1.61,0,0,1-1.23-.65,4.7,4.7,0,0,1-1-1.75.56.56,0,0,1,.55-.67c.21,0,.41.06.61.07A4.07,4.07,0,0,1,40.33,115Z" transform="translate(8.27 -5.27)"/><path class="cls-10" d="M58.48,38.29a14.09,14.09,0,0,1,.08,1.45c0,2.28,0,4.55-.05,6.83a76.71,76.71,0,0,1-.78,9.69A72.78,72.78,0,0,1,56,65.17,40.92,40.92,0,0,1,53.51,72c-.29.62-.63,1.23-1,1.82a.68.68,0,0,1-.72.31c-.88-.16-1.76-.34-2.63-.52a33.87,33.87,0,0,0-5.11-.76c-.62,0-1.23-.13-1.85-.23s-.79-.36-.78-.81a11.3,11.3,0,0,0-.38-2.65c-.45-2.16-.94-4.32-1.2-6.5a53.16,53.16,0,0,1-.57-6.18c0-1.72-.09-3.45-.14-5.19.06-2.05.06-4.13.2-6.19A73.57,73.57,0,0,1,42.62,27a30.19,30.19,0,0,1,2.46-5.69,25.66,25.66,0,0,1,1.6-2.4,6.14,6.14,0,0,1,1.67-1.54,3.25,3.25,0,0,1,4,.28,8.11,8.11,0,0,1,1.48,1.72,17.69,17.69,0,0,1,1.75,3.51,40.42,40.42,0,0,1,2,7.8C58,33.2,58.23,35.75,58.48,38.29Z" transform="translate(8.27 -5.27)"/><path class="cls-10" d="M113.2,52a7.31,7.31,0,0,1-.32,2.45A19.55,19.55,0,0,1,111,58.61a38.84,38.84,0,0,1-3.37,4.71,69.94,69.94,0,0,1-9.11,9,93.9,93.9,0,0,1-13.74,9.59,11.84,11.84,0,0,1-3,1.42,2.42,2.42,0,0,0-.93.44,18.25,18.25,0,0,1-4.23,2.13c-.89.39-1.8.71-2.7,1.06a8.94,8.94,0,0,0-2.22,1.08.78.78,0,0,1-1.1-.2,6,6,0,0,1-.39-.49,53.91,53.91,0,0,0-5.74-6.25,3.57,3.57,0,0,1-.43-.44.67.67,0,0,1-.14-.77c.42-.78.83-1.58,1.31-2.34a45.27,45.27,0,0,1,5.11-6.5A83.29,83.29,0,0,1,85,58.67a79.12,79.12,0,0,1,13-7.23A33.3,33.3,0,0,1,105.68,49c.88-.14,1.77-.23,2.65-.35a8,8,0,0,1,2.86.51A3,3,0,0,1,113.2,52Z" transform="translate(8.27 -5.27)"/><path class="cls-4" d="M122.21,45.06a14.61,14.61,0,0,1-.2,5.55,27.4,27.4,0,0,1-2.14,6,50.89,50.89,0,0,1-5.72,9.11,80.8,80.8,0,0,1-12.88,13.13,85,85,0,0,1-12.63,8.65,17.48,17.48,0,0,1-2.8,1.32,13.28,13.28,0,0,0-2,1,32.05,32.05,0,0,1-6.94,2.65c-.6.16-1.22.23-1.83.34s-.83.4-.51,1a68.52,68.52,0,0,1,3.14,6.52,50.5,50.5,0,0,1,3.42,12.76,44.75,44.75,0,0,1,.2,10.54,40.37,40.37,0,0,1-3.83,13.89A35.14,35.14,0,0,1,52.59,157a42.91,42.91,0,0,1-11.53.73c-.83,0-1.65-.16-2.47-.24a.54.54,0,0,0-.42.38c0,.21,0,.42,0,.62,0,.42.06.83.11,1.24a47.18,47.18,0,0,1,.19,8.89,23.92,23.92,0,0,1-.95,5.5c-.13.39-.21.8-.3,1.2-.21.92-.54,1.24-1.38,1.19-1,0-2.07-.13-3.09-.25-1.85-.2-3.7-.44-5.55-.67L22.86,175l-5.95-.76c-1.58-.21-3.14-.44-4.72-.66l-3.49-.45c-2.46-.32-4.92-.62-7.38-1-1-.13-1.91-.3-2.86-.48a2,2,0,0,1-1.61-1.68,4,4,0,0,1-.08-1c0-1.17.06-2.35.1-3.52,0-1.38.12-2.76.17-4.14,0-.41,0-.82,0-1.23l-1-1.07a12.2,12.2,0,0,1-1.85-2.49A8,8,0,0,1-6.6,150a8.87,8.87,0,0,1,3.36-4.84c.17-.11.33-.25.51-.39a2.82,2.82,0,0,0,.15-.57q.22-4.45.43-8.9c0-.55,0-1.11,0-1.66a3.39,3.39,0,0,0-.56-2.15A37.22,37.22,0,0,1-7.19,120.2a34.55,34.55,0,0,1-.8-8.84c.35-9.48,4.09-17.5,10.58-24.3A45.5,45.5,0,0,1,20.22,75.79a51.51,51.51,0,0,1,10-2.56c1.23-.19,2.46-.35,3.7-.44a10.27,10.27,0,0,0,1.62-.31c.08,0,.16-.21.17-.33a.73.73,0,0,0-.09-.4,27.27,27.27,0,0,1-2-6.3,60.32,60.32,0,0,1-1.33-12.13c0-1.51,0-3,0-4.55a67,67,0,0,1,.59-8.26,80.12,80.12,0,0,1,2.36-12.18A63.09,63.09,0,0,1,39,18,34.45,34.45,0,0,1,43.31,11a29,29,0,0,1,2.38-2.58A12.86,12.86,0,0,1,49.1,6.07a8.55,8.55,0,0,1,5-.7,7.32,7.32,0,0,1,2.68,1,12.55,12.55,0,0,1,3.48,3.21,21,21,0,0,1,2.24,3.72A38.49,38.49,0,0,1,65.43,22,68.05,68.05,0,0,1,66.81,32.2c.09,1.37.13,2.76.09,4.14-.07,2.69-.12,5.38-.34,8.07a77.05,77.05,0,0,1-1.2,8.81,77.4,77.4,0,0,1-2.89,11A45.83,45.83,0,0,1,57.29,75c-.08.11-.12.25-.19.37a.53.53,0,0,0,.19.55,9.54,9.54,0,0,0,2.61,1.31c.17-.32.35-.61.49-.93a43.14,43.14,0,0,1,5-8.57,76.36,76.36,0,0,1,11-12.1,87.06,87.06,0,0,1,16.84-12A74.79,74.79,0,0,1,104,39.06a11.53,11.53,0,0,1,1.41-.33,28.14,28.14,0,0,1,8.43-.68,10.32,10.32,0,0,1,5,1.73A7.74,7.74,0,0,1,122.21,45.06ZM120,51.32a14.08,14.08,0,0,0,.62-4.91,6.52,6.52,0,0,0-5.1-6.26,12.3,12.3,0,0,0-3.48-.49,27,27,0,0,0-6.92,1.08,50.33,50.33,0,0,0-10.7,4.37A85.06,85.06,0,0,0,69.19,65.63,50.5,50.5,0,0,0,62.37,76a10.49,10.49,0,0,0-.95,2.27,1.84,1.84,0,0,0,.19.37,3,3,0,0,0,.47.4c.48.35.74.32,1-.15a47.37,47.37,0,0,1,8.36-10.74A91.7,91.7,0,0,1,84.67,57.21a72.91,72.91,0,0,1,12.45-6.93,39.11,39.11,0,0,1,7.66-2.47,17.54,17.54,0,0,1,5.36-.23,5.45,5.45,0,0,1,2,.63,4.11,4.11,0,0,1,2.35,3.43,9.91,9.91,0,0,1,0,1.44,11.62,11.62,0,0,1-1.18,4.16A27.91,27.91,0,0,1,110.41,62a54.8,54.8,0,0,1-5.23,6.15,88.19,88.19,0,0,1-19.8,15.21,46,46,0,0,1-5.51,2.81,41.94,41.94,0,0,1-7.25,2.41,2.12,2.12,0,0,0-.72.36.4.4,0,0,0-.14.34,9.44,9.44,0,0,0,1.57,2.41.64.64,0,0,0,.56.1c1.24-.42,2.47-.87,3.7-1.32a28.22,28.22,0,0,0,5.12-2.2,3.61,3.61,0,0,1,.94-.42,9.64,9.64,0,0,0,2.07-.93A85.38,85.38,0,0,0,112,65.45a49.56,49.56,0,0,0,5.84-8.77A28.89,28.89,0,0,0,120,51.32Zm-7.1,3.17A7.31,7.31,0,0,0,113.2,52a3,3,0,0,0-2-2.86,8,8,0,0,0-2.86-.51c-.88.12-1.77.21-2.65.35A33.3,33.3,0,0,0,98,51.44a79.12,79.12,0,0,0-13,7.23A83.29,83.29,0,0,0,70.3,71.07a45.27,45.27,0,0,0-5.11,6.5c-.48.76-.89,1.56-1.31,2.34a.67.67,0,0,0,.14.77,3.57,3.57,0,0,0,.43.44,53.91,53.91,0,0,1,5.74,6.25,6,6,0,0,0,.39.49.78.78,0,0,0,1.1.2A8.94,8.94,0,0,1,73.9,87c.9-.35,1.81-.67,2.7-1.06a18.25,18.25,0,0,0,4.23-2.13,2.42,2.42,0,0,1,.93-.44,11.84,11.84,0,0,0,3-1.42,93.9,93.9,0,0,0,13.74-9.59,69.94,69.94,0,0,0,9.11-9A38.84,38.84,0,0,0,111,58.61,19.55,19.55,0,0,0,112.88,54.49Zm-33.32,67a44.34,44.34,0,0,0-.29-8.06,49.68,49.68,0,0,0-2.85-11.41A53.88,53.88,0,0,0,63.81,82.8c-3.58-3.53-3.48-3.48-8.42-5.86a12.76,12.76,0,0,0-2.34-.83,55.65,55.65,0,0,0-13.29-1.76,56.56,56.56,0,0,0-10.71.85A50,50,0,0,0,16,79.56,42.42,42.42,0,0,0,2.74,89.72a32.06,32.06,0,0,0-3.63,5,.47.47,0,0,0,.13.55,5.56,5.56,0,0,0,.73.37,16.77,16.77,0,0,1,3.66,1.91A16.15,16.15,0,0,1,9.87,116,15.61,15.61,0,0,1-.71,126.25c-.53.17-1.06.3-1.59.46a.44.44,0,0,0-.22.51c.16.38.31.77.5,1.14a40.8,40.8,0,0,0,8.24,10.82,48.66,48.66,0,0,0,10.63,7.48q3,1.6,6,3.23a49.67,49.67,0,0,0,10.9,4.43,45.91,45.91,0,0,0,6.7,1.22,32.07,32.07,0,0,0,9.28-.23c.12,0,.22-.14.33-.21a3.11,3.11,0,0,0-.41-1.58A16.12,16.12,0,0,1,74,135.28l1.38.91a.44.44,0,0,0,.54-.14,7.28,7.28,0,0,0,.4-.72A38.62,38.62,0,0,0,79.56,121.52ZM74.87,138.2c.16-.29.28-.62.45-1a6.33,6.33,0,0,0-.72-.74,15.88,15.88,0,0,0-12.29-3.1,14.23,14.23,0,0,0-8.87,4.88,15.13,15.13,0,0,0-3.52,13.5c.77,3.87.54,3.72,4.21,2.71A33.23,33.23,0,0,0,74.87,138.2ZM64.62,45.59A76.06,76.06,0,0,0,65,36.28a86.39,86.39,0,0,0-.71-9.91,50.84,50.84,0,0,0-1.76-8.08,27.54,27.54,0,0,0-2.43-5.7,15.35,15.35,0,0,0-2.47-3.31A8.19,8.19,0,0,0,55.5,7.71a5.78,5.78,0,0,0-4.41-.48A10.29,10.29,0,0,0,48,8.8a18.41,18.41,0,0,0-3.84,4,35.73,35.73,0,0,0-3.5,6.09,62.92,62.92,0,0,0-3.79,10.94A83.27,83.27,0,0,0,35.08,39c-.35,2.6-.67,5.2-.76,7.83-.1,3-.11,5.94,0,8.9A55.14,55.14,0,0,0,35.45,65c.49,2.3,1.07,4.57,1.62,6.85a3.11,3.11,0,0,0,.32.63,16,16,0,0,0,2.85,0,.47.47,0,0,0,.33-.45c-.07-.34-.15-.67-.25-1-.31-1-.67-2-1-3a47.83,47.83,0,0,1-1.58-9.79,92,92,0,0,1,.28-16.34,81.27,81.27,0,0,1,2.17-12,41,41,0,0,1,2.9-8,17.74,17.74,0,0,1,2.33-3.66,10.14,10.14,0,0,1,2.14-1.94,4.69,4.69,0,0,1,5.42.22,10,10,0,0,1,2.29,2.65,21.05,21.05,0,0,1,1.83,3.94,46.5,46.5,0,0,1,2.08,8.64c.28,1.84.4,3.7.58,5.56C60,38.93,60,40.5,60,42.1a108.1,108.1,0,0,1-.76,12.19,76.61,76.61,0,0,1-1.81,10A41.42,41.42,0,0,1,54,73.56a2.49,2.49,0,0,0-.24.56.53.53,0,0,0,.05.39,1.14,1.14,0,0,0,1.77.06l.45-.69a45.38,45.38,0,0,0,3.63-7.2A77.39,77.39,0,0,0,64.62,45.59Zm-6.06-5.85a14.09,14.09,0,0,0-.08-1.45c-.25-2.54-.45-5.09-.88-7.6a40.42,40.42,0,0,0-2-7.8,17.69,17.69,0,0,0-1.75-3.51,8.11,8.11,0,0,0-1.48-1.72,3.25,3.25,0,0,0-4-.28,6.14,6.14,0,0,0-1.67,1.54,25.66,25.66,0,0,0-1.6,2.4A30.19,30.19,0,0,0,42.62,27a73.57,73.57,0,0,0-3.27,18.07c-.14,2.06-.14,4.14-.2,6.19.05,1.74.12,3.47.14,5.19a53.16,53.16,0,0,0,.57,6.18c.26,2.18.75,4.34,1.2,6.5a11.3,11.3,0,0,1,.38,2.65c0,.45.29.73.78.81s1.23.19,1.85.23a33.87,33.87,0,0,1,5.11.76c.87.18,1.75.36,2.63.52a.68.68,0,0,0,.72-.31c.35-.59.69-1.2,1-1.82A40.92,40.92,0,0,0,56,65.17a72.78,72.78,0,0,0,1.78-8.91,76.71,76.71,0,0,0,.78-9.69C58.53,44.29,58.55,42,58.56,39.74ZM36.1,170.65c.19-4.35-.07-8.7-.2-13.05a2.83,2.83,0,0,0-.15-.58c-.52-.16-1-.34-1.44-.45A47.33,47.33,0,0,1,20.78,151c-1.25-.75-2.53-1.41-3.83-2.05A46.59,46.59,0,0,1,1,136.65c-.26-.32-.55-.63-.83-.93a.86.86,0,0,0-.34-.18c-.06,0-.19,0-.19.05a6,6,0,0,0-.13,1,58.39,58.39,0,0,1-.21,6.21c-.13,1.21,0,1.28,1.18,1.33.13,0,.27,0,.41,0a6.21,6.21,0,0,1,3.68,1.18L7,147a43.77,43.77,0,0,0,4.23,2.62,11.22,11.22,0,0,0,3.27,1.22c.75.14,1.5.26,2.24.44a3.6,3.6,0,0,1,.91.43.46.46,0,0,1,0,.71,2,2,0,0,1-.74.33,10.54,10.54,0,0,1-4.5-.39,20,20,0,0,1-2.28-1A42,42,0,0,1,4.66,148a16.78,16.78,0,0,0-1.89-1.26,4.64,4.64,0,0,0-5.69.93,6.69,6.69,0,0,0-.72,8.06,9.58,9.58,0,0,0,2.52,2.71c.69.46,1.36,1,2.06,1.4a11.58,11.58,0,0,0,4.61,1.73,48.84,48.84,0,0,0,8.43.9.71.71,0,0,1,.2,0c.15,0,.21.13.15.3a.24.24,0,0,1-.13.15,13.26,13.26,0,0,1-3.39.84,18.29,18.29,0,0,1-8-.48,12.79,12.79,0,0,1-2.47-1c-.37-.19-.73-.39-1.1-.57a.38.38,0,0,0-.47.25,69.54,69.54,0,0,0,0,7.64c0,.07.05.13.09.23a6.63,6.63,0,0,0,2.39.45c.76.07,1.52.11,2.27.2,1.78.2,3.56.44,5.34.64s3.3.35,4.94.54c1.23.14,2.47.3,3.7.46,1.64.21,3.28.45,4.92.65s3.3.33,4.94.54c2.6.34,5.19.71,7.79,1.06.62.09.88-.13.89-.77C36.08,172.58,36.06,171.62,36.1,170.65ZM5.29,122a15.15,15.15,0,0,0,4.56-14.31A16.05,16.05,0,0,0-.61,96.09,2.88,2.88,0,0,0-1,96a.7.7,0,0,0-.73.27c-.28.48-.57,1-.81,1.44a33.09,33.09,0,0,0-3.38,15,31.82,31.82,0,0,0,2.15,11.66c.15.38.3.77.47,1.14s.48.57,1,.47a7.25,7.25,0,0,0,.81-.16A16.76,16.76,0,0,0,5.29,122Z" transform="translate(8.27 -5.27)"/><path class="cls-4" d="M109.08,120.69c.12.07.13.32.22.59a22,22,0,0,1-4.4-.23c-4.47-.78-8.89-1.78-13.33-2.72-1.07-.22-2.12-.55-3.17-.87a1.78,1.78,0,0,1-.63-.51.59.59,0,0,1,.29-.83,4.39,4.39,0,0,1,1-.05c1.24.12,2.47.23,3.69.43a116.85,116.85,0,0,1,11.7,2.45A20.24,20.24,0,0,1,109.08,120.69Z" transform="translate(8.27 -5.27)"/><path class="cls-4" d="M108.21,107.77c.15.09.1.45-.07.52a6.75,6.75,0,0,1-1.33.51c-1.77.32-3.53.66-5.3.84-3.09.32-6.18.54-9.27.79l-.62,0c-.82,0-1.24,0-1.65,0a.9.9,0,0,1-.74-.63.88.88,0,0,1,.31-.92,2,2,0,0,1,.51-.33,14.15,14.15,0,0,1,2.22-.47c2.8-.38,5.63-.42,8.44-.74,1.5-.16,3-.19,4.54-.23a10.85,10.85,0,0,1,2,.18A3,3,0,0,1,108.21,107.77Z" transform="translate(8.27 -5.27)"/><path class="cls-4" d="M102.77,93.7a.55.55,0,0,1,.29.5,2.78,2.78,0,0,1-.21.57,3.15,3.15,0,0,1-1.17,1.15c-.76.47-1.52,1-2.32,1.36-3.1,1.52-6,3.31-9,5.1-.53.31-1.1.57-1.66.84a3.7,3.7,0,0,1-.59.19,1,1,0,0,1-1.05-.46,1.06,1.06,0,0,1,.13-1.16,6.24,6.24,0,0,1,.77-.68,59,59,0,0,1,8.3-5c1.55-.76,3.14-1.44,4.7-2.15a2.66,2.66,0,0,1,1.42-.3Z" transform="translate(8.27 -5.27)"/><path class="cls-4" d="M100.57,147.58a.65.65,0,0,1-.15.91,11.25,11.25,0,0,1-2.51.91c-.73.22-1.48.35-2.21.52a.66.66,0,0,0-.49.78c.05.34.12.68.19,1,.14.67.29,1.34.44,2a6.92,6.92,0,0,1-.27,3.47,2.85,2.85,0,0,1-.37.74.86.86,0,0,1-1.25.26c-1.07-.87-2.13-1.75-3.17-2.66-.78-.68-1.51-1.4-2.29-2.09a2.17,2.17,0,0,0-.55-.27,2.87,2.87,0,0,0-.61.15c-.73.37-1.45.78-2.19,1.15-1,.5-2,1-3,1.45a2.61,2.61,0,0,1-1.41.2.84.84,0,0,1-.74-.85,4.67,4.67,0,0,1,.2-1,21.73,21.73,0,0,1,1.78-3.5c.5-.83,1-1.66,1.48-2.49a5.69,5.69,0,0,0,.26-.56.58.58,0,0,0-.23-.72,16.56,16.56,0,0,1-2.65-2,3.14,3.14,0,0,1-.49-.66.78.78,0,0,1,.35-1,5.18,5.18,0,0,1,1.59-.41c1.52-.11,3-.24,4.54-.36a1.09,1.09,0,0,0,.86-.5c.35-.51.69-1,1-1.56a8.5,8.5,0,0,1,1.64-1.85.75.75,0,0,1,1.09.12,5.25,5.25,0,0,1,.51.89,12.43,12.43,0,0,1,.93,3.17c.06.4.19.8.25,1.21a1,1,0,0,0,.81.84,34.49,34.49,0,0,1,4.31,1.42,13.57,13.57,0,0,1,1.7.76A2.77,2.77,0,0,1,100.57,147.58Zm-2.64.63c.21-.05.43-.32.36-.44s-.12-.26-.22-.3c-1-.38-1.92-.77-2.9-1.11-.78-.27-1.58-.45-2.37-.72a1,1,0,0,1-.76-.88c0-.2,0-.41-.07-.61a12.13,12.13,0,0,0-1-3.82c-.19.07-.45.08-.55.21-.48.58-.94,1.19-1.37,1.81A4.27,4.27,0,0,1,88,143.66c-1.92.16-3.94-.06-5.88.53,0,.15,0,.31.07.39a2.9,2.9,0,0,0,.61.55c.45.31.92.6,1.39.89.24.14.48.26.72.41a.87.87,0,0,1,.33,1.09c-.6,1.08-1.22,2.16-1.83,3.24-.51.89-1,1.78-1.53,2.69a10.09,10.09,0,0,0-.38,1,.22.22,0,0,0,.14.33.28.28,0,0,0,.2,0,15.1,15.1,0,0,0,2.79-1.31c.85-.46,1.7-.93,2.58-1.32a1.73,1.73,0,0,1,1.93.29c.78.69,1.52,1.4,2.29,2.1s1.44,1.29,2.17,1.91a4.53,4.53,0,0,0,.77.41,5,5,0,0,0,.36-2.69c-.13-.74-.29-1.49-.46-2.22a6.19,6.19,0,0,1-.23-2.05,1,1,0,0,1,.7-.92c.27-.08.53-.15.8-.21Z" transform="translate(8.27 -5.27)"/><path class="cls-4" d="M64.11,116.46a3.36,3.36,0,0,1-.15,1.21A4.53,4.53,0,0,1,59.32,121,4,4,0,0,1,55.8,119a3.88,3.88,0,0,1,0-4.31,4.66,4.66,0,0,1,3.93-2.34,4,4,0,0,1,2.7.89A4.58,4.58,0,0,1,64.11,116.46Zm-1.31.13A2.18,2.18,0,0,0,62,114.4a2.73,2.73,0,0,0-1.87-.62,3.13,3.13,0,0,0-3,1.58,2.59,2.59,0,0,0,1.71,3.87A3.22,3.22,0,0,0,62.8,116.59Z" transform="translate(8.27 -5.27)"/><path class="cls-4" d="M47.64,127.32a.29.29,0,0,1,0,.18c-.05.12-.08.28-.18.36a6.2,6.2,0,0,1-5.18,1.45,6.92,6.92,0,0,1-3.93-2.13,11.75,11.75,0,0,1-2.68-4.84c-.21-.66-.35-1.34-.57-2a.57.57,0,0,0-.5-.24,24.89,24.89,0,0,1-3.36,1,10.79,10.79,0,0,1-5.32-.26,6.62,6.62,0,0,1-4.38-6.42s0-.28.07-.54.11-.28.26-.26.3.06.33.14a6.57,6.57,0,0,1,.31,1c.11.4.16.81.28,1.21A5.62,5.62,0,0,0,28,120.1a11.36,11.36,0,0,0,4.48-.59c.85-.28,1.66-.66,2.5-1a5.71,5.71,0,0,1,.58-.21.71.71,0,0,1,.78.52c.05.27.08.54.11.82a15.26,15.26,0,0,0,.89,3.39,10,10,0,0,0,1.73,3,6,6,0,0,0,3.47,2.09,7,7,0,0,0,3.24-.42c.6-.16,1.08-.64,1.75-.57A.31.31,0,0,1,47.64,127.32Z" transform="translate(8.27 -5.27)"/><path class="cls-4" d="M41.66,114.65a1.49,1.49,0,0,1-.72,2.07,4.15,4.15,0,0,1-2.29.34c-.19,0-.65-.12-1.13-.18a2.36,2.36,0,0,1-1.52-.95,7.74,7.74,0,0,1-1.42-2.24,1.6,1.6,0,0,1,1.24-2.17,2.51,2.51,0,0,1,1,0A8.14,8.14,0,0,1,41,113.65,4.09,4.09,0,0,1,41.66,114.65Zm-1.56,1a.52.52,0,0,0,.23-.67A4.07,4.07,0,0,0,37,112.9c-.2,0-.4-.05-.61-.07a.56.56,0,0,0-.55.67,4.7,4.7,0,0,0,1,1.75,1.61,1.61,0,0,0,1.23.65l.59,0A2.89,2.89,0,0,0,40.1,115.68Z" transform="translate(8.27 -5.27)"/><path class="cls-4" d="M31.79,25.87a1.21,1.21,0,0,1,0,1.95,3.87,3.87,0,0,1-.7.43c-.5.22-1,.41-1.53.61L25,30.67a.71.71,0,0,0-.45.82c.17.6.35,1.19.54,1.78a29.42,29.42,0,0,1,.88,4.25,1.77,1.77,0,0,1-.32,1.37.74.74,0,0,1-.72.28,6,6,0,0,1-1.13-.48c-.82-.51-1.62-1.06-2.41-1.61-1.25-.86-2.48-1.74-3.73-2.61a.89.89,0,0,0-1.14,0q-2,1.55-3.89,3.1a14.93,14.93,0,0,1-3,1.87c-.31.14-.63.27-1,.4A.88.88,0,0,1,7.42,39a6.22,6.22,0,0,1,.25-1.42c.7-2.23,1.32-4.5,2.24-6.66.13-.31.22-.64.37-1.06A11.08,11.08,0,0,0,8,28.17c-1-.64-2-1.25-2.95-1.9A4.78,4.78,0,0,1,3.57,24.8a1.09,1.09,0,0,1,.72-1.61c.27,0,.54-.05.82-.07l2.47-.23c.89-.07,1.79-.12,2.68-.17.62,0,1.24,0,1.86-.09A1.72,1.72,0,0,0,14,21.27c.16-.73.47-1.43.69-2.15a32.47,32.47,0,0,1,1.43-3.65,2.41,2.41,0,0,1,.68-.75.89.89,0,0,1,1.5.38,19.52,19.52,0,0,1,.7,2.37,23.62,23.62,0,0,0,1.62,4.24A2.06,2.06,0,0,0,22,22.87c.79.23,1.58.46,2.38.67,1.66.44,3.34.84,5,1.3A8.24,8.24,0,0,1,31.79,25.87Zm-1.5,1.4c.27-.12.39-.31.3-.46s-.14-.26-.24-.3a6.73,6.73,0,0,0-1.15-.46c-1.12-.32-2.26-.62-3.39-.92-1.33-.35-2.66-.71-4-1a3.6,3.6,0,0,1-2.55-2.22,20.93,20.93,0,0,1-1.58-4.48,1.53,1.53,0,0,0-.49-1.08,1.48,1.48,0,0,0-.58.83L15,21.4c-.2.52-.39,1-.61,1.54a.88.88,0,0,1-.61.51,11.17,11.17,0,0,1-2.44.38c-.9,0-1.8,0-2.69.09-1.17.11-2.32.29-3.48.46,0,0-.15.28-.11.32a3.51,3.51,0,0,0,.72.72c1,.65,2,1.24,3,1.88.82.52,1.61,1.06,2.4,1.62A1,1,0,0,1,11.53,30c-.14.46-.33.9-.51,1.35a61.79,61.79,0,0,0-2,6.07c-.07.26-.18.52.06.78A4.86,4.86,0,0,0,11.2,37.1c1.2-.93,2.37-1.9,3.56-2.84a15.66,15.66,0,0,1,1.32-1,1.84,1.84,0,0,1,2,0,2.52,2.52,0,0,1,.33.24l4.4,3.1c.39.27.81.52,1.22.77a.34.34,0,0,0,.48-.2,5,5,0,0,0-.17-1.84c-.27-1-.56-2-.83-3-.13-.47-.26-.93-.36-1.41a.93.93,0,0,1,.63-1.14l5.59-2.14Z" transform="translate(8.27 -5.27)"/><path class="cls-4" d="M29.65,63.46a5,5,0,0,1,0,1.23.82.82,0,0,1-.69.67.9.9,0,0,1-.89-.39c-.07-.12-.16-.23-.22-.35a8.7,8.7,0,0,1-.38-1c-.89-3.19-2-6.3-2.78-9.53a41.47,41.47,0,0,1-.83-4.69c-.06-.47-.08-1-.12-1.44s.09-.69.17-1a.44.44,0,0,1,.26-.27.47.47,0,0,1,.33.21,4.68,4.68,0,0,1,.53.88c.36.9.73,1.79,1,2.71q1.43,4.65,2.77,9.32C29.17,61,29.41,62.24,29.65,63.46Z" transform="translate(8.27 -5.27)"/><path class="cls-4" d="M27.14,94.45A4.53,4.53,0,0,1,25.45,102a10.29,10.29,0,0,1-1,.2,4.61,4.61,0,0,1-4.49-4,5,5,0,0,1,.33-2.42A4.24,4.24,0,0,1,27.14,94.45Zm-1.34,5.62A2.69,2.69,0,0,0,27,97.6a3.21,3.21,0,0,0-2-3.07,2.06,2.06,0,0,0-2.14.22,3.24,3.24,0,0,0-.27,5A2.52,2.52,0,0,0,25.8,100.07Z" transform="translate(8.27 -5.27)"/><path class="cls-4" d="M23.1,67.78a.78.78,0,0,1-1.05.64,3.12,3.12,0,0,1-.83-.59,12.34,12.34,0,0,1-1.12-1.49q-3.2-5-6.35-9.92a19.5,19.5,0,0,1-1.93-3.88,3.28,3.28,0,0,1-.21-1.42c0-.17.13-.24.36-.2a1.77,1.77,0,0,1,.41.32c.77,1,1.54,1.94,2.27,2.94,1.41,2,2.79,3.94,4.19,5.9a53,53,0,0,1,3.34,5.22A18.49,18.49,0,0,1,23,67,2.13,2.13,0,0,1,23.1,67.78Z" transform="translate(8.27 -5.27)"/></g></g></g></svg>