<svg xmlns="http://www.w3.org/2000/svg" xmlns:xlink="http://www.w3.org/1999/xlink" viewBox="0 0 139.76 187.22"><defs><style>.cls-1{fill:none;}.cls-2{fill:#fffdf5;}.cls-3{fill:#eedaea;}.cls-4{fill:#512a4c;}.cls-5{clip-path:url(#clip-path);}.cls-6{fill:#a8619f;}.cls-7{clip-path:url(#clip-path-2);}.cls-8{fill:#672a60;opacity:0.13;}.cls-9{clip-path:url(#clip-path-3);}.cls-10{fill:#d9beda;}</style><clipPath id="clip-path" transform="translate(-1.65 -5.64)"><rect class="cls-1" width="155.24" height="182.05"/></clipPath><clipPath id="clip-path-2" transform="translate(-1.65 -5.64)"><path class="cls-2" d="M56.62,156.55c-.2.43-.35.81-.55,1.17-1.71,3.16-3.12,6.46-4.5,9.76a41,41,0,0,0-1.32,3.92c-.49,1.58-.91,3.18-1.37,4.77-.13.46-.31.91-.43,1.27-1.49,1.06-2.86,2.09-4.3,3a14.38,14.38,0,0,1-4.63,2.23,2.23,2.23,0,0,1-1.4,0,6.05,6.05,0,0,0-1.41-.26,13.83,13.83,0,0,1-3.44-.7,12,12,0,0,1-1.31-.6,4.6,4.6,0,0,1-2.34-4.71,7,7,0,0,1,.9-2.94A14.2,14.2,0,0,1,33.13,170c.81-.75,1.64-1.48,2.48-2.2q1.57-1.34,3.18-2.64a66.32,66.32,0,0,0,8.71-8.54,10.47,10.47,0,0,0,1.66-2.36c.44-.92.74-.85,1.41-.49a37,37,0,0,0,4.9,2.19A9.94,9.94,0,0,1,56.62,156.55Z"/></clipPath><clipPath id="clip-path-3" transform="translate(-1.65 -5.64)"><path class="cls-2" d="M138.66,125.14a6.15,6.15,0,0,1,.29,2.28,17.24,17.24,0,0,1-1.54,6.77,23.92,23.92,0,0,1-2.08,3.82,58.69,58.69,0,0,1-10,11.53c-1.76,1.55-3.64,3-5.51,4.38-1.16.86-2.43,1.58-3.62,2.39-.75.5-1.45,1.06-2.17,1.59a1.27,1.27,0,0,0-.49,1.28c0,.07,0,.14,0,.2.57,2.63,1.11,5.27,1.93,7.83a77.69,77.69,0,0,1,2.7,12.53c.2,1.36.44,2.72.67,4.08.08.52-.09.75-.65.79l-5.37.43-1.86.17c-.48,0-1,.13-1.44.15-1.79.07-3.58.22-5.36.4-1.58.16-3.17.2-4.75.36-2.54.26-5.09.38-7.64.57-.76.05-1.51.12-2.27.18-.27,0-.55.09-.82.11l-7.43.53c-.83.06-1.65.14-2.48.22l-.62.07-7.43.54-2.47.21c-.21,0-.41.07-.62.08l-7,.54c-.75.06-1.51.14-2.26.22-.35,0-.69.09-1,.12l-6.19.52c-.55.05-1.09.2-1.64.25s-1.23.06-1.85.07c-.23,0-.48-.32-.44-.58.06-.41.11-.82.2-1.22.73-3.16,1.57-6.29,2.57-9.37.88-2.69,1.71-5.4,2.57-8.09.29-.92.6-1.84,1-2.73,1.51-3.55,3-7.1,4.58-10.64a1.63,1.63,0,0,1,.09-.19.82.82,0,0,1,.69-.38c.4.07.81.14,1.22.23a43.41,43.41,0,0,0,9.85,1,48.25,48.25,0,0,0,17.89-3.84c1.34-.56,2.69-1.06,4.07-1.5a47.64,47.64,0,0,0,14.47-7.43,40.73,40.73,0,0,0,10.41-11.4,6.34,6.34,0,0,1,1.45-1.73,16,16,0,0,0,3.7-4.43c.59-1,1.2-2,1.82-3a17.08,17.08,0,0,1,2.27-2.94,7.09,7.09,0,0,1,5.39-2.23,7.63,7.63,0,0,1,5.37,2.3A8.42,8.42,0,0,1,138.66,125.14Z"/></clipPath></defs><g id="Layer_2" data-name="Layer 2"><g id="OBJECTS"><rect class="cls-3" x="12.37" y="48.28" width="126.32" height="126.32" rx="13.3"/><path class="cls-4" d="M129.7,181.31h-105A11.72,11.72,0,0,1,13,169.6v-105A11.72,11.72,0,0,1,24.66,52.85h105a11.72,11.72,0,0,1,11.71,11.71v105A11.72,11.72,0,0,1,129.7,181.31ZM24.66,55a9.58,9.58,0,0,0-9.57,9.57v105a9.58,9.58,0,0,0,9.57,9.57h105a9.59,9.59,0,0,0,9.57-9.57v-105A9.58,9.58,0,0,0,129.7,55Z" transform="translate(-1.65 -5.64)"/><g class="cls-5"><path class="cls-4" d="M56.91,114.42a2.8,2.8,0,0,1-1.62,3.18,3.39,3.39,0,0,1-3.77-1.37,3.19,3.19,0,0,1-.5-2,2.4,2.4,0,0,1,1.6-1.9A3.38,3.38,0,0,1,56.91,114.42Z" transform="translate(-1.65 -5.64)"/><path class="cls-4" d="M94.58,100.46a3.28,3.28,0,0,1-1.84,3.38,2.63,2.63,0,0,1-3.63-1.93c0-.27,0-.54-.06-.69A3.42,3.42,0,0,1,91.86,98a1.8,1.8,0,0,1,1.2.19A2.81,2.81,0,0,1,94.58,100.46Z" transform="translate(-1.65 -5.64)"/><path class="cls-6" d="M77.78,114.54a.48.48,0,0,1,.38.6,4,4,0,0,1-1.67,2,3.23,3.23,0,0,1-1,.26c-.62-.17-1.22-.31-1.81-.48a.55.55,0,0,1-.17-.85,4.39,4.39,0,0,1,3.82-1.6Z" transform="translate(-1.65 -5.64)"/><path class="cls-2" d="M56.62,156.55c-.2.43-.35.81-.55,1.17-1.71,3.16-3.12,6.46-4.5,9.76a41,41,0,0,0-1.32,3.92c-.49,1.58-.91,3.18-1.37,4.77-.13.46-.31.91-.43,1.27-1.49,1.06-2.86,2.09-4.3,3a14.38,14.38,0,0,1-4.63,2.23,2.23,2.23,0,0,1-1.4,0,6.05,6.05,0,0,0-1.41-.26,13.83,13.83,0,0,1-3.44-.7,12,12,0,0,1-1.31-.6,4.6,4.6,0,0,1-2.34-4.71,7,7,0,0,1,.9-2.94A14.2,14.2,0,0,1,33.13,170c.81-.75,1.64-1.48,2.48-2.2q1.57-1.34,3.18-2.64a66.32,66.32,0,0,0,8.71-8.54,10.47,10.47,0,0,0,1.66-2.36c.44-.92.74-.85,1.41-.49a37,37,0,0,0,4.9,2.19A9.94,9.94,0,0,1,56.62,156.55Z" transform="translate(-1.65 -5.64)"/><g class="cls-7"><path class="cls-8" d="M55.26,162.47a2.83,2.83,0,0,0-3.88,0l-1.28,1c-.05,0-.67.52-.18.15l-.56.42c-.8.61-1.62,1.21-2.45,1.78a35.12,35.12,0,0,1-5.3,3.1c-.08,0-.49.21-.51.23l-.42.16c-.47.18-.94.34-1.42.48s-.95.27-1.44.38l-.67.14-.5.08-.58.07-.69,0q-.74,0-1.47,0l-.79-.06H33l-.09,0c-.52-.1-1-.21-1.55-.35A2.77,2.77,0,0,0,28,172a3,3,0,0,0,.11,1.71,2.46,2.46,0,0,0-1.59,1.22,2.79,2.79,0,0,0,1,3.75,13.2,13.2,0,0,0,3.23,1.2A2.58,2.58,0,0,0,32,181.47c3.58,2,7.88,2.77,11.69,1a9.11,9.11,0,0,0,3-2.35,15,15,0,0,0,6.09-9.67,3.67,3.67,0,0,0-.24-2l2.71-2.11A2.76,2.76,0,0,0,55.26,162.47Z" transform="translate(-1.65 -5.64)"/></g><path class="cls-2" d="M138.66,125.14a6.15,6.15,0,0,1,.29,2.28,17.24,17.24,0,0,1-1.54,6.77,23.92,23.92,0,0,1-2.08,3.82,58.69,58.69,0,0,1-10,11.53c-1.76,1.55-3.64,3-5.51,4.38-1.16.86-2.43,1.58-3.62,2.39-.75.5-1.45,1.06-2.17,1.59a1.27,1.27,0,0,0-.49,1.28c0,.07,0,.14,0,.2.57,2.63,1.11,5.27,1.93,7.83a77.69,77.69,0,0,1,2.7,12.53c.2,1.36.44,2.72.67,4.08.08.52-.09.75-.65.79l-5.37.43-1.86.17c-.48,0-1,.13-1.44.15-1.79.07-3.58.22-5.36.4-1.58.16-3.17.2-4.75.36-2.54.26-5.09.38-7.64.57-.76.05-1.51.12-2.27.18-.27,0-.55.09-.82.11l-7.43.53c-.83.06-1.65.14-2.48.22l-.62.07-7.43.54-2.47.21c-.21,0-.41.07-.62.08l-7,.54c-.75.06-1.51.14-2.26.22-.35,0-.69.09-1,.12l-6.19.52c-.55.05-1.09.2-1.64.25s-1.23.06-1.85.07c-.23,0-.48-.32-.44-.58.06-.41.11-.82.2-1.22.73-3.16,1.57-6.29,2.57-9.37.88-2.69,1.71-5.4,2.57-8.09.29-.92.6-1.84,1-2.73,1.51-3.55,3-7.1,4.58-10.64a1.63,1.63,0,0,1,.09-.19.82.82,0,0,1,.69-.38c.4.07.81.14,1.22.23a43.41,43.41,0,0,0,9.85,1,48.25,48.25,0,0,0,17.89-3.84c1.34-.56,2.69-1.06,4.07-1.5a47.64,47.64,0,0,0,14.47-7.43,40.73,40.73,0,0,0,10.41-11.4,6.34,6.34,0,0,1,1.45-1.73,16,16,0,0,0,3.7-4.43c.59-1,1.2-2,1.82-3a17.08,17.08,0,0,1,2.27-2.94,7.09,7.09,0,0,1,5.39-2.23,7.63,7.63,0,0,1,5.37,2.3A8.42,8.42,0,0,1,138.66,125.14Z" transform="translate(-1.65 -5.64)"/><g class="cls-9"><path class="cls-8" d="M131.62,111.4a2.81,2.81,0,0,0-3.75,1c-4,5.91-6.88,12.51-10.8,18.49-.35.55-.72,1.09-1.1,1.62l-.67.93-.22.3c-.09.12-.61.83-.15.21a41.17,41.17,0,0,1-2.69,3.21,60.64,60.64,0,0,1-6.19,5.91l-.74.6-.45.35,0,0h0c-.56.42-1.12.84-1.69,1.24q-1.78,1.28-3.66,2.41A61.82,61.82,0,0,1,92,151.58l-.52.23h-.05l-.89.36c-.67.27-1.36.53-2,.78-1.35.48-2.71.92-4.09,1.3A64.48,64.48,0,0,1,76.17,156l-.72.09-1.13.12c-.79.08-1.59.14-2.38.18-1.58.09-3.17.12-4.75.08s-3.17-.14-4.75-.32c-.29,0-.59,0-.89-.09l-.18,0-.75-.12c-.82-.12-1.63-.27-2.44-.44a2.74,2.74,0,0,0-1.46,5.29A62.67,62.67,0,0,0,92,157.48a63.88,63.88,0,0,0,28.34-21.75c4.69-6.48,7.74-14,12.23-20.57A2.76,2.76,0,0,0,131.62,111.4Z" transform="translate(-1.65 -5.64)"/><path class="cls-8" d="M121.78,171.57a2.74,2.74,0,0,0-4-2.42c0-3-.1-6-.2-9a2.74,2.74,0,0,0-5.48,0q.45,13-.07,25.94a2.75,2.75,0,0,0,4.77,1.83,2.75,2.75,0,0,0,5.42-.62A103.13,103.13,0,0,0,121.78,171.57Z" transform="translate(-1.65 -5.64)"/></g><path class="cls-2" d="M57.71,76.43a.79.79,0,0,1-.41.87,5.68,5.68,0,0,1-.55.28.51.51,0,0,1-.54-.18,4,4,0,0,1-.28-.54,41.43,41.43,0,0,0-4.45-8.4,76.38,76.38,0,0,0-6.6-8.5A87.09,87.09,0,0,0,29.7,46.25a51.51,51.51,0,0,0-7.48-4.41A26.51,26.51,0,0,0,16,39.71a8.33,8.33,0,0,0-2.68-.11,4.65,4.65,0,0,0-4.5,4.56,11.8,11.8,0,0,0,.58,4.49,26,26,0,0,0,1.7,4.22,47.85,47.85,0,0,0,3.58,6.05A86.21,86.21,0,0,0,27.89,74a79.81,79.81,0,0,0,8.42,6.7A40.54,40.54,0,0,0,45,85.41a6.6,6.6,0,0,1,.91.48.39.39,0,0,1,.06.54c-.4.47-.81.94-1.22,1.4-.76.85-.85.94-1.88.27a12.67,12.67,0,0,0-1.46-.77,62.46,62.46,0,0,1-12.49-8.07A85.91,85.91,0,0,1,9.76,57.41a51.28,51.28,0,0,1-5-10.64A27.93,27.93,0,0,1,3.45,40.5c0-.34,0-.69-.06-1a12.13,12.13,0,0,1,.77-4,6.2,6.2,0,0,1,5-3.86,16.05,16.05,0,0,1,7.15.67,34.6,34.6,0,0,1,6.1,2.54,62.65,62.65,0,0,1,11.3,7.64A86.29,86.29,0,0,1,50,60.28a58.26,58.26,0,0,1,5.81,10.48c.63,1.53,1.15,3.11,1.7,4.66A7,7,0,0,1,57.71,76.43Z" transform="translate(-1.65 -5.64)"/><path class="cls-2" d="M89.48,41.54c-.19,3.36-.27,6.67-.65,10a80.52,80.52,0,0,1-2.55,13A61.49,61.49,0,0,1,84,70.93c-.42,1-.82,2-1.25,3.07a.64.64,0,0,1-.65.41,9.3,9.3,0,0,1-2.46-.29.54.54,0,0,1-.35-.65,5.57,5.57,0,0,1,.32-.76,36.87,36.87,0,0,0,3.54-9A77.24,77.24,0,0,0,85.41,51.9a97.82,97.82,0,0,0,.7-10.54,75.84,75.84,0,0,0-.84-11.56,34.38,34.38,0,0,0-1.61-6.62,17,17,0,0,0-1.78-3.73A9,9,0,0,0,80,17.29a4.41,4.41,0,0,0-4.86-.53,8.27,8.27,0,0,0-2.74,2.17,20,20,0,0,0-2.23,3.24,38,38,0,0,0-2.9,6.63A71.79,71.79,0,0,0,64.65,39a91.87,91.87,0,0,0-1.14,22.7,42.34,42.34,0,0,0,2.2,11.35,5.82,5.82,0,0,1,.22.79.43.43,0,0,1-.31.46,4.66,4.66,0,0,1-.82.13.79.79,0,0,1-.53-.21,5,5,0,0,1-.51-.9A43.43,43.43,0,0,1,61,64.91a75.18,75.18,0,0,1-1.4-8.58,83.37,83.37,0,0,1-.26-13.86A73.28,73.28,0,0,1,63.38,21.4a40.81,40.81,0,0,1,2.8-6.22,23.5,23.5,0,0,1,3-4.23,12.68,12.68,0,0,1,3.37-2.72,6.72,6.72,0,0,1,4.42-.63A5.81,5.81,0,0,1,79,8.47,11.06,11.06,0,0,1,81.79,11a22.39,22.39,0,0,1,2.83,4.56,40.92,40.92,0,0,1,2.87,8.41A66.05,66.05,0,0,1,89.22,36.2C89.29,38,89.39,39.79,89.48,41.54Z" transform="translate(-1.65 -5.64)"/><path class="cls-2" d="M117.16,102c0,.1,0,.25,0,.43l-1.76.52a16.11,16.11,0,0,0-2.86,30.17c.56.26,1.13.48,1.65.7a.81.81,0,0,1-.15.84c-.87,1.16-1.7,2.36-2.64,3.45a41.71,41.71,0,0,1-15.61,11.33c-2.47,1.05-5,1.94-7.53,2.87-2.07.77-4.12,1.58-6.25,2.18a41.14,41.14,0,0,1-8.51,1.63c-1.17.08-2.34.26-3.51.27a42.32,42.32,0,0,1-10.45-1.24,12.81,12.81,0,0,1-1.32-.47,1.74,1.74,0,0,1,.39-1.19,16.26,16.26,0,0,0,1.53-4.27A15.71,15.71,0,0,0,57,136.1a10.9,10.9,0,0,0-1-1.08,1.6,1.6,0,0,0-.49-.24,1.51,1.51,0,0,0-.25-.49,15.9,15.9,0,0,0-7.6-4A13.82,13.82,0,0,0,43.2,130a17.53,17.53,0,0,0-5.77,1.51c-.56.27-1.12.52-1.7.75-.08,0-.28-.05-.34-.14a1.78,1.78,0,0,1-.25-.56,30.83,30.83,0,0,1-1.22-5.86c-.13-1.38-.31-2.75-.33-4.13a45.12,45.12,0,0,1,3.45-18A52.71,52.71,0,0,1,49.8,85.15a61,61,0,0,1,9.86-7.52,9.48,9.48,0,0,1,3.66-1.36,58.6,58.6,0,0,1,11.76-.72c10.74.53,20.59,3.65,29.23,10.2a40.46,40.46,0,0,1,12,14.31C116.63,100.67,116.9,101.31,117.16,102Zm-24,3.57a4.72,4.72,0,0,0,3-4.72s0-.14,0-.32a4.17,4.17,0,0,0-4.68-3.63,4.56,4.56,0,0,0-2.22,8A3.84,3.84,0,0,0,93.11,105.52Zm-.93,12.59a1.38,1.38,0,0,0-.1-.6c0-.11-.19-.18-.3-.25s-.13,0-.16.1a3.27,3.27,0,0,0-.37.72,8.81,8.81,0,0,1-1,2.27A5.16,5.16,0,0,1,86,122.88a9.09,9.09,0,0,1-4.25-.7c-.88-.38-1.74-.82-2.59-1.26-.43-.23-.82-.52-1.23-.77a.65.65,0,0,0-1,.41c-.2.58-.38,1.18-.59,1.76a13.06,13.06,0,0,1-2,3.81,7.26,7.26,0,0,1-2.49,2.15,5.13,5.13,0,0,1-2.78.63,6,6,0,0,1-2.37-.69l-1.62-.91a.47.47,0,0,0-.57,0c-.13.1-.1.35,0,.54a6,6,0,0,0,3.08,2l1,.31.74,1.24a10.48,10.48,0,0,0,1.94,2.41A11.44,11.44,0,0,0,78,136.83a11.87,11.87,0,0,0,7.33-1.7,11,11,0,0,0,5.48-8.32,13.8,13.8,0,0,0-.28-4.67l.61-.93A6.64,6.64,0,0,0,92.18,118.11Zm-12.69-2.8a1.55,1.55,0,0,0-1.26-2c-.27,0-.55-.06-.66-.07A8.1,8.1,0,0,0,73,114.77a3.6,3.6,0,0,0-.58.59,3.81,3.81,0,0,0-.38.72,1.17,1.17,0,0,0,.25,1.34,3.33,3.33,0,0,0,1,.68,4.13,4.13,0,0,0,1,.2c2.35.41,2.8,0,4.35-1.59a4.58,4.58,0,0,0,.6-.84A2.18,2.18,0,0,0,79.49,115.31Zm-25,4.13a4.05,4.05,0,0,0,4-4.14,4.45,4.45,0,0,0-2.68-4.09,4,4,0,0,0-3.22-.22,4.22,4.22,0,0,0-2.05,6.58A4.55,4.55,0,0,0,54.53,119.44Z" transform="translate(-1.65 -5.64)"/><path class="cls-6" d="M55.08,77.9A.85.85,0,0,1,54.7,79,59,59,0,0,0,47.37,85a.78.78,0,0,1-1.12,0,7.65,7.65,0,0,0-1.69-1.18A78.69,78.69,0,0,1,26.81,70.77a85,85,0,0,1-9.87-11.15,53.58,53.58,0,0,1-4.3-6.82,24.81,24.81,0,0,1-2.09-5.16c-.25-.93-.39-1.89-.52-2.53.13-3,1.33-4.23,4.23-4.29,1,.2,2,.27,3,.57a29,29,0,0,1,5.16,2.12A59,59,0,0,1,31,49,89.89,89.89,0,0,1,47.92,65.61a55.93,55.93,0,0,1,5.31,8.13A33.56,33.56,0,0,1,55.08,77.9Z" transform="translate(-1.65 -5.64)"/><path class="cls-6" d="M84.28,33.86a71.92,71.92,0,0,1,.26,8.68c-.08,3-.34,6.06-.71,9.08A90.27,90.27,0,0,1,82.19,61a68.57,68.57,0,0,1-2.82,9.29,12.37,12.37,0,0,0-1,3.15.7.7,0,0,1-.6.49c-.27,0-.55,0-.82,0-2.83-.12-5.66-.08-8.49.07-.2,0-.41,0-.62,0a.84.84,0,0,1-.77-.57,24.25,24.25,0,0,1-1.24-4.16A53.7,53.7,0,0,1,64.59,58.4c0-1,0-1.93,0-2.9a66.94,66.94,0,0,1,.5-9.7,83.28,83.28,0,0,1,3.64-16.95,38.33,38.33,0,0,1,2.62-6.07A15.71,15.71,0,0,1,74,19.11a6.07,6.07,0,0,1,2-1.39,2.78,2.78,0,0,1,2.39.11,5.15,5.15,0,0,1,1.71,1.47A12.13,12.13,0,0,1,81.68,22a27.64,27.64,0,0,1,1.65,5.33A62.43,62.43,0,0,1,84.28,33.86Z" transform="translate(-1.65 -5.64)"/><path class="cls-10" d="M59.65,143.8a15.89,15.89,0,0,1-1,7.92c-.23.57-.48,1.14-.75,1.7-.45.94-.65,1-1.59.68a33,33,0,0,1-10.05-5.61,33.41,33.41,0,0,1-10-13.68L36,134c-.21-.57-.3-.95.44-1.36A15.08,15.08,0,0,1,40,131.16c5.26-1.3,10.1-.51,14.38,3,.26.21.52.44.81.63a.77.77,0,0,0,.32.05.56.56,0,0,0,0,.32c.33.44.69.86,1,1.29A14.81,14.81,0,0,1,59.65,143.8Z" transform="translate(-1.65 -5.64)"/><path class="cls-10" d="M119.29,108.47a33.78,33.78,0,0,1-3.45,23.21c-.2.36-.42.72-.63,1.07a.81.81,0,0,1-1.06.36,17.17,17.17,0,0,1-5.4-3.39,15.18,15.18,0,0,1-2.45-19.59,16.15,16.15,0,0,1,9.57-6.76,8.15,8.15,0,0,1,1.22-.18.77.77,0,0,1,.8.53A28.13,28.13,0,0,1,119.29,108.47Z" transform="translate(-1.65 -5.64)"/><path class="cls-10" d="M87.56,130.27c.08,0,.13.22.12.33a.73.73,0,0,1-.16.37,10.37,10.37,0,0,1-9.77,4.24,3.29,3.29,0,0,1-.61-.12l-1-.33c0-.23,0-.47.13-.6a14.14,14.14,0,0,1,4.44-3.66,7.18,7.18,0,0,1,2.4-.6,12.9,12.9,0,0,1,3.51,0A3.47,3.47,0,0,1,87.56,130.27Z" transform="translate(-1.65 -5.64)"/><path class="cls-6" d="M89.44,123.76a10.55,10.55,0,0,1-.68,4.88.67.67,0,0,1-.82.44,13.48,13.48,0,0,0-3.9-.4c-.34,0-.69,0-1,0a8,8,0,0,0-4.39,1.66,15.88,15.88,0,0,0-3.4,3.3c-.11.17-.24.34-.33.47a3.53,3.53,0,0,1-.71-.17,10.82,10.82,0,0,1-3.63-3.33.51.51,0,0,1,.2-.7c.07,0,.13-.06.19-.07a8.93,8.93,0,0,0,5.1-4,13.74,13.74,0,0,0,1.41-2.75c.13-.32.28-.63.43-1a.47.47,0,0,1,.53-.18l1.66.83a11.21,11.21,0,0,0,5.39,1.24,7.79,7.79,0,0,0,2.83-.51,4.2,4.2,0,0,1,.79-.22.25.25,0,0,1,.3.22C89.39,123.64,89.44,123.7,89.44,123.76Z" transform="translate(-1.65 -5.64)"/><path class="cls-4" d="M120.9,124.88c0-.07-.05-.14-.08-.22a.41.41,0,0,1,.05.09A.61.61,0,0,1,120.9,124.88Z" transform="translate(-1.65 -5.64)"/><path class="cls-4" d="M96.16,100.8a4.72,4.72,0,0,1-3,4.72,3.84,3.84,0,0,1-3.87-.67,4.56,4.56,0,0,1,2.22-8,4.17,4.17,0,0,1,4.68,3.63C96.16,100.66,96.16,100.85,96.16,100.8Zm-3.42,3a3.28,3.28,0,0,0,1.84-3.38,2.81,2.81,0,0,0-1.52-2.31,1.8,1.8,0,0,0-1.2-.19,3.42,3.42,0,0,0-2.81,3.26c0,.15,0,.42.06.69A2.63,2.63,0,0,0,92.74,103.84Z" transform="translate(-1.65 -5.64)"/><path class="cls-4" d="M92.08,117.51a1.38,1.38,0,0,1,.1.6,6.64,6.64,0,0,1-1.06,3.1l-.61.93a13.8,13.8,0,0,1,.28,4.67,11,11,0,0,1-5.48,8.32,11.87,11.87,0,0,1-7.33,1.7,11.44,11.44,0,0,1-6.65-3.05,10.48,10.48,0,0,1-1.94-2.41l-.74-1.24-1-.31a6,6,0,0,1-3.08-2c-.15-.19-.18-.44,0-.54a.47.47,0,0,1,.57,0l1.62.91a6,6,0,0,0,2.37.69,5.13,5.13,0,0,0,2.78-.63,7.26,7.26,0,0,0,2.49-2.15,13.06,13.06,0,0,0,2-3.81c.21-.58.39-1.18.59-1.76a.65.65,0,0,1,1-.41c.41.25.8.54,1.23.77.85.44,1.71.88,2.59,1.26a9.09,9.09,0,0,0,4.25.7,5.16,5.16,0,0,0,4.26-2.53,8.81,8.81,0,0,0,1-2.27,3.27,3.27,0,0,1,.37-.72s.13-.11.16-.1S92,117.4,92.08,117.51Zm-3.32,11.13a10.55,10.55,0,0,0,.68-4.88c0-.06,0-.12-.06-.19a.25.25,0,0,0-.3-.22,4.2,4.2,0,0,0-.79.22,7.79,7.79,0,0,1-2.83.51,11.21,11.21,0,0,1-5.39-1.24L78.41,122a.47.47,0,0,0-.53.18c-.15.32-.3.63-.43,1A13.74,13.74,0,0,1,76,125.89a8.93,8.93,0,0,1-5.1,4c-.06,0-.12.05-.19.07a.51.51,0,0,0-.2.7A10.82,10.82,0,0,0,74.18,134a3.53,3.53,0,0,0,.71.17c.09-.13.22-.3.33-.47a15.88,15.88,0,0,1,3.4-3.3A8,8,0,0,1,83,128.73c.34,0,.69,0,1,0a13.48,13.48,0,0,1,3.9.4A.67.67,0,0,0,88.76,128.64Zm-1.08,2c0-.11,0-.3-.12-.33a3.47,3.47,0,0,0-1-.35,12.9,12.9,0,0,0-3.51,0,7.18,7.18,0,0,0-2.4.6,14.14,14.14,0,0,0-4.44,3.66c-.1.13-.08.37-.13.6l1,.33a3.29,3.29,0,0,0,.61.12A10.37,10.37,0,0,0,87.52,131,.73.73,0,0,0,87.68,130.6Z" transform="translate(-1.65 -5.64)"/><path class="cls-4" d="M78.23,113.32a1.55,1.55,0,0,1,1.26,2,2.18,2.18,0,0,1-.25.56,4.58,4.58,0,0,1-.6.84c-1.55,1.64-2,2-4.35,1.59a4.13,4.13,0,0,1-1-.2,3.33,3.33,0,0,1-1-.68,1.17,1.17,0,0,1-.25-1.34,3.81,3.81,0,0,1,.38-.72,3.6,3.6,0,0,1,.58-.59,8.1,8.1,0,0,1,4.58-1.52C77.68,113.26,78,113.28,78.23,113.32Zm-.07,1.82a.48.48,0,0,0-.38-.6l-.41-.05a4.39,4.39,0,0,0-3.82,1.6.55.55,0,0,0,.17.85c.59.17,1.19.31,1.81.48a3.23,3.23,0,0,0,1-.26A4,4,0,0,0,78.16,115.14Z" transform="translate(-1.65 -5.64)"/><path class="cls-4" d="M58.53,115.3a4.05,4.05,0,0,1-4,4.14,4.55,4.55,0,0,1-4-1.87A4.22,4.22,0,0,1,52.63,111a4,4,0,0,1,3.22.22A4.45,4.45,0,0,1,58.53,115.3Zm-3.24,2.3a2.8,2.8,0,0,0,1.62-3.18,3.38,3.38,0,0,0-4.29-2.12,2.4,2.4,0,0,0-1.6,1.9,3.19,3.19,0,0,0,.5,2A3.39,3.39,0,0,0,55.29,117.6Z" transform="translate(-1.65 -5.64)"/><path class="cls-4" d="M120.82,124.66l0-.09c.24.15.49.29.71,0s.59-.93.92-1.37c.63-.82,1.24-1.67,1.93-2.43a8.47,8.47,0,0,1,4.14-2.63,10,10,0,0,1,10.76,3.45,14.15,14.15,0,0,1,1.2,1.93,7.48,7.48,0,0,1,.87,3.38,18.43,18.43,0,0,1-1.06,6.5,26.54,26.54,0,0,1-3,6.1,63.27,63.27,0,0,1-6.18,7.77,47.56,47.56,0,0,1-8.23,7.23c-2.33,1.6-4.57,3.35-7,4.81a.64.64,0,0,0-.3.87,49.4,49.4,0,0,1,3,8.6,64.23,64.23,0,0,1,2.32,13.64,13.14,13.14,0,0,1,0,1.66,5.1,5.1,0,0,0,.09,1.23,1.09,1.09,0,0,1-.84,1.22c-.21,0-.41.06-.62.08-2.89.24-5.77.51-8.66.73-2.62.2-5.24.36-7.85.54l-1.86.17c-.41,0-.82.12-1.23.14-1.94.06-3.86.25-5.79.43-1.51.13-3,.19-4.54.34-2.54.25-5.09.37-7.64.56-1,.07-1.93.15-2.89.24-.21,0-.41.05-.62.07l-7.85.53-2.06.17c-.35,0-.69.1-1,.12l-8.47.54c-.28,0-.56,0-.83,0a100.43,100.43,0,0,1-10.06.47c-.64.29-.76,1.09-1.46,1.2a2.21,2.21,0,0,1-.43-1.37,23.2,23.2,0,0,1,0-2.89,36.78,36.78,0,0,1,.89-5.31c.17-.66.3-1.34.42-2,0-.08-.12-.21-.2-.29a.24.24,0,0,0-.2,0c-.46.31-.92.61-1.35.95a18.36,18.36,0,0,1-4,2.15,5.58,5.58,0,0,1-2.42.46c-.9,0-1.8,0-2.69,0a12.47,12.47,0,0,1-4.44-.9,7.77,7.77,0,0,1-2.14-1.24,6.52,6.52,0,0,1-2.47-6.24A9.31,9.31,0,0,1,29,172.27a16.51,16.51,0,0,1,2.78-3.59c.91-.85,1.84-1.68,2.79-2.48,1.2-1,2.43-2,3.66-3a108.61,108.61,0,0,0,9-8.58,4.69,4.69,0,0,0,.42-.47c1-1.32,1.2-1.26-.31-2.31A35.26,35.26,0,0,1,32.7,129.93a40.12,40.12,0,0,1-.91-11.72,50.3,50.3,0,0,1,8.76-24.9c.69-1,1.44-2,2.17-3,.3-.43.2-.74-.36-.9a30.58,30.58,0,0,1-6.74-3.13A68,68,0,0,1,24.49,78,84.94,84.94,0,0,1,7.38,57.08,49.89,49.89,0,0,1,2.75,46.49a23.33,23.33,0,0,1-1.06-8.17,10.63,10.63,0,0,1,.84-3.61A7.87,7.87,0,0,1,8,30a12.8,12.8,0,0,1,5.54-.23A29.24,29.24,0,0,1,20.81,32a50,50,0,0,1,7.43,4.06,78.47,78.47,0,0,1,12.6,10.4A84.7,84.7,0,0,1,54,63.42a51.83,51.83,0,0,1,4.58,10c.26.78.49,1.58.74,2.36,0,.14.38.28.53.24l.2-.06.19-.07c1.82-.73,2.14-.9,2.13-1.13a6.08,6.08,0,0,0-.79-2.1,47.76,47.76,0,0,1-2.68-8.9,78.62,78.62,0,0,1-1.38-10.25,71,71,0,0,1-.17-9.11c.15-2.55.29-5.1.6-7.64a83,83,0,0,1,2.2-11.37,51.53,51.53,0,0,1,3.3-8.91,30.88,30.88,0,0,1,3.73-6,15.62,15.62,0,0,1,3.15-3,11.76,11.76,0,0,1,2.17-1.2,7.73,7.73,0,0,1,6.61.2,10.8,10.8,0,0,1,2.7,1.9,19.21,19.21,0,0,1,3.41,4.41,37.45,37.45,0,0,1,3.4,8.2A66.91,66.91,0,0,1,90.8,32a87.18,87.18,0,0,1,.27,16.55,71.75,71.75,0,0,1-3.61,18.44,31.49,31.49,0,0,1-3.38,7.31c-.16.24,0,.5.3.61s.66.22,1,.29a53.15,53.15,0,0,1,13.54,5A46.17,46.17,0,0,1,114.18,93a37.72,37.72,0,0,1,7,14.67,33.14,33.14,0,0,1,.79,11.1c-.15,1.3-.32,2.6-.56,3.89a5.94,5.94,0,0,1-.6,2l0,.07c0,.08.05.15.08.22a.61.61,0,0,0,0-.13A.41.41,0,0,0,120.82,124.66ZM55.6,134.83s0,0,0-.05a1.6,1.6,0,0,1,.49.24,10.9,10.9,0,0,1,1,1.08,15.71,15.71,0,0,1,3.1,13.07,16.26,16.26,0,0,1-1.53,4.27,1.74,1.74,0,0,0-.39,1.19,12.81,12.81,0,0,0,1.32.47A42.32,42.32,0,0,0,70,156.34c1.17,0,2.34-.19,3.51-.27A41.14,41.14,0,0,0,82,154.44c2.13-.6,4.18-1.41,6.25-2.18,2.52-.93,5.06-1.82,7.53-2.87a41.71,41.71,0,0,0,15.61-11.33c.94-1.09,1.77-2.29,2.64-3.45a.81.81,0,0,0,.15-.84c-.52-.22-1.09-.44-1.65-.7a16.11,16.11,0,0,1,2.86-30.17l1.76-.52c0-.18.06-.33,0-.43-.26-.64-.53-1.28-.83-1.89a40.46,40.46,0,0,0-12-14.31c-8.64-6.55-18.49-9.67-29.23-10.2a58.6,58.6,0,0,0-11.76.72,9.48,9.48,0,0,0-3.66,1.36,61,61,0,0,0-9.86,7.52A52.71,52.71,0,0,0,37,103.57a45.12,45.12,0,0,0-3.45,18c0,1.38.2,2.75.33,4.13a30.83,30.83,0,0,0,1.22,5.86,1.78,1.78,0,0,0,.25.56c.06.09.26.18.34.14.58-.23,1.14-.48,1.7-.75A17.53,17.53,0,0,1,43.2,130a13.82,13.82,0,0,1,4.53.36,15.9,15.9,0,0,1,7.6,4,1.51,1.51,0,0,1,.25.49l0,0v.07a.77.77,0,0,1-.32-.05c-.29-.19-.55-.42-.81-.63-4.28-3.5-9.12-4.29-14.38-3a15.08,15.08,0,0,0-3.62,1.51c-.74.41-.65.79-.44,1.36l.29.78a33.41,33.41,0,0,0,10,13.68,33,33,0,0,0,10.05,5.61c.94.33,1.14.26,1.59-.68.27-.56.52-1.13.75-1.7a15.89,15.89,0,0,0,1-7.92,14.81,14.81,0,0,0-3-7.36c-.34-.43-.7-.85-1-1.29a.56.56,0,0,1,0-.32ZM139,127.42a6.15,6.15,0,0,0-.29-2.28,8.42,8.42,0,0,0-1.87-3,7.63,7.63,0,0,0-5.37-2.3,7.09,7.09,0,0,0-5.39,2.23,17.08,17.08,0,0,0-2.27,2.94c-.62,1-1.23,2-1.82,3a16,16,0,0,1-3.7,4.43,6.34,6.34,0,0,0-1.45,1.73,40.73,40.73,0,0,1-10.41,11.4,47.64,47.64,0,0,1-14.47,7.43c-1.38.44-2.73.94-4.07,1.5A48.25,48.25,0,0,1,70,158.39a43.41,43.41,0,0,1-9.85-1c-.41-.09-.82-.16-1.22-.23a.82.82,0,0,0-.69.38,1.63,1.63,0,0,0-.09.19c-1.53,3.54-3.07,7.09-4.58,10.64-.37.89-.68,1.81-1,2.73-.86,2.69-1.69,5.4-2.57,8.09-1,3.08-1.84,6.21-2.57,9.37-.09.4-.14.81-.2,1.22,0,.26.21.59.44.58.62,0,1.24,0,1.85-.07s1.09-.2,1.64-.25l6.19-.52c.34,0,.68-.09,1-.12.75-.08,1.51-.16,2.26-.22l7-.54c.21,0,.41-.06.62-.08l2.47-.21,7.43-.54.62-.07c.83-.08,1.65-.16,2.48-.22l7.43-.53c.27,0,.55-.08.82-.11.76-.06,1.51-.13,2.27-.18,2.55-.19,5.1-.31,7.64-.57,1.58-.16,3.17-.2,4.75-.36,1.78-.18,3.57-.33,5.36-.4.48,0,1-.11,1.44-.15l1.86-.17,5.37-.43c.56,0,.73-.27.65-.79-.23-1.36-.47-2.72-.67-4.08a77.69,77.69,0,0,0-2.7-12.53c-.82-2.56-1.36-5.2-1.93-7.83,0-.06,0-.13,0-.2a1.27,1.27,0,0,1,.49-1.28c.72-.53,1.42-1.09,2.17-1.59,1.19-.81,2.46-1.53,3.62-2.39,1.87-1.41,3.75-2.83,5.51-4.38a58.69,58.69,0,0,0,10-11.53,23.92,23.92,0,0,0,2.08-3.82A17.24,17.24,0,0,0,139,127.42ZM120,115a33.92,33.92,0,0,0-.72-6.55,28.13,28.13,0,0,0-1.4-4.75.77.77,0,0,0-.8-.53,8.15,8.15,0,0,0-1.22.18,16.15,16.15,0,0,0-9.57,6.76,15.18,15.18,0,0,0,2.45,19.59,17.17,17.17,0,0,0,5.4,3.39.81.81,0,0,0,1.06-.36c.21-.35.43-.71.63-1.07A33.85,33.85,0,0,0,120,115ZM88.83,51.51c.38-3.3.46-6.61.65-10-.09-1.75-.19-3.54-.26-5.34a66.05,66.05,0,0,0-1.73-12.28,40.92,40.92,0,0,0-2.87-8.41A22.39,22.39,0,0,0,81.79,11,11.06,11.06,0,0,0,79,8.47a5.81,5.81,0,0,0-2.09-.87,6.72,6.72,0,0,0-4.42.63A12.68,12.68,0,0,0,69.15,11a23.5,23.5,0,0,0-3,4.23,40.81,40.81,0,0,0-2.8,6.22A73.28,73.28,0,0,0,59.3,42.47a83.37,83.37,0,0,0,.26,13.86A75.18,75.18,0,0,0,61,64.91a43.43,43.43,0,0,0,2.8,8.43,5,5,0,0,0,.51.9.79.79,0,0,0,.53.21,4.66,4.66,0,0,0,.82-.13.43.43,0,0,0,.31-.46,5.82,5.82,0,0,0-.22-.79,42.34,42.34,0,0,1-2.2-11.35A91.87,91.87,0,0,1,64.65,39,71.79,71.79,0,0,1,67.23,28.8a38,38,0,0,1,2.9-6.63,20,20,0,0,1,2.23-3.24,8.27,8.27,0,0,1,2.74-2.17,4.41,4.41,0,0,1,4.86.53,9,9,0,0,1,1.92,2.16,17,17,0,0,1,1.78,3.73,34.38,34.38,0,0,1,1.61,6.62,75.84,75.84,0,0,1,.84,11.56,97.82,97.82,0,0,1-.7,10.54,77.24,77.24,0,0,1-2.25,11.78,36.87,36.87,0,0,1-3.54,9,5.57,5.57,0,0,0-.32.76.54.54,0,0,0,.35.65,9.3,9.3,0,0,0,2.46.29.64.64,0,0,0,.65-.41c.43-1,.83-2,1.25-3.07a61.49,61.49,0,0,0,2.27-6.44A80.52,80.52,0,0,0,88.83,51.51Zm-4.29-9a71.92,71.92,0,0,0-.26-8.68,62.43,62.43,0,0,0-1-6.54A27.64,27.64,0,0,0,81.68,22a12.13,12.13,0,0,0-1.53-2.69,5.15,5.15,0,0,0-1.71-1.47,2.78,2.78,0,0,0-2.39-.11,6.07,6.07,0,0,0-2,1.39,15.71,15.71,0,0,0-2.66,3.67,38.33,38.33,0,0,0-2.62,6.07A83.28,83.28,0,0,0,65.09,45.8a66.94,66.94,0,0,0-.5,9.7c0,1,0,1.94,0,2.9a53.7,53.7,0,0,0,1.27,10.87,24.25,24.25,0,0,0,1.24,4.16.84.84,0,0,0,.77.57c.21,0,.42,0,.62,0,2.83-.15,5.66-.19,8.49-.07.27,0,.55,0,.82,0a.7.7,0,0,0,.6-.49,12.37,12.37,0,0,1,1-3.15A68.57,68.57,0,0,0,82.19,61a90.27,90.27,0,0,0,1.64-9.36C84.2,48.6,84.46,45.58,84.54,42.54ZM57.3,77.3a.79.79,0,0,0,.41-.87,7,7,0,0,0-.23-1c-.55-1.55-1.07-3.13-1.7-4.66A58.26,58.26,0,0,0,50,60.28,86.29,86.29,0,0,0,33.72,42.41a62.65,62.65,0,0,0-11.3-7.64,34.6,34.6,0,0,0-6.1-2.54,16.05,16.05,0,0,0-7.15-.67,6.2,6.2,0,0,0-5,3.86,12.13,12.13,0,0,0-.77,4c0,.34,0,.69.06,1a27.93,27.93,0,0,0,1.28,6.27,51.28,51.28,0,0,0,5,10.64A85.91,85.91,0,0,0,28.93,79.26a62.46,62.46,0,0,0,12.49,8.07,12.67,12.67,0,0,1,1.46.77c1,.67,1.12.58,1.88-.27.41-.46.82-.93,1.22-1.4a.39.39,0,0,0-.06-.54,6.6,6.6,0,0,0-.91-.48,40.54,40.54,0,0,1-8.7-4.74A79.81,79.81,0,0,1,27.89,74a86.21,86.21,0,0,1-13.24-15,47.85,47.85,0,0,1-3.58-6.05,26,26,0,0,1-1.7-4.22,11.8,11.8,0,0,1-.58-4.49,4.65,4.65,0,0,1,4.5-4.56,8.33,8.33,0,0,1,2.68.11,26.51,26.51,0,0,1,6.25,2.13,51.51,51.51,0,0,1,7.48,4.41A87.09,87.09,0,0,1,44.88,60a76.38,76.38,0,0,1,6.6,8.5,41.43,41.43,0,0,1,4.45,8.4,4,4,0,0,0,.28.54.51.51,0,0,0,.54.18A5.68,5.68,0,0,0,57.3,77.3Zm-1.23,80.42c.2-.36.35-.74.55-1.17a9.94,9.94,0,0,0-1.15-.55,37,37,0,0,1-4.9-2.19c-.67-.36-1-.43-1.41.49a10.47,10.47,0,0,1-1.66,2.36,66.32,66.32,0,0,1-8.71,8.54q-1.6,1.31-3.18,2.64c-.84.72-1.67,1.45-2.48,2.2a14.2,14.2,0,0,0-2.61,3.45,7,7,0,0,0-.9,2.94A4.6,4.6,0,0,0,32,181.14a12,12,0,0,0,1.31.6,13.83,13.83,0,0,0,3.44.7,6.05,6.05,0,0,1,1.41.26,2.23,2.23,0,0,0,1.4,0,14.38,14.38,0,0,0,4.63-2.23c1.44-.95,2.81-2,4.3-3,.12-.36.3-.81.43-1.27.46-1.59.88-3.19,1.37-4.77a41,41,0,0,1,1.32-3.92C53,164.18,54.36,160.88,56.07,157.72ZM54.7,79a.85.85,0,0,0,.38-1.07,33.56,33.56,0,0,0-1.85-4.16,55.93,55.93,0,0,0-5.31-8.13A89.89,89.89,0,0,0,31,49a59,59,0,0,0-8.52-5.46,29,29,0,0,0-5.16-2.12c-1-.3-2-.37-3-.57-2.9.06-4.1,1.26-4.23,4.29.13.64.27,1.6.52,2.53a24.81,24.81,0,0,0,2.09,5.16,53.58,53.58,0,0,0,4.3,6.82,85,85,0,0,0,9.87,11.15A78.69,78.69,0,0,0,44.56,83.89a7.65,7.65,0,0,1,1.69,1.18.78.78,0,0,0,1.12,0A59,59,0,0,1,54.7,79Z" transform="translate(-1.65 -5.64)"/><path class="cls-4" d="M55.58,134.78s0,0,0,.05h-.07v-.07Z" transform="translate(-1.65 -5.64)"/></g></g></g></svg>